# xmcd CD database file
#
# Track frame offsets:
#	150
#	8191
#	18378
#	35574
#	50325
#	65742
#	80066
#	114708
#	124024
#	127543
#	142985
#	155138
#	166778
#	182908
#	194840
#	210843
#
# Disc length: 3143 seconds
#
# Revision: 2
# Processed by: cddbd v1.5.1PL2 Copyright (c) Steve Scherf et al.
# Submitted via: jetAudio 5
#
DISCID=dc0c4510
DTITLE=Неизвестный - Неизвестный
DYEAR=1900
DGENRE=blues
TTITLE0=Трек 1
TTITLE1=Трек 2
TTITLE2=Трек 3
TTITLE3=Трек 4
TTITLE4=Трек 5
TTITLE5=Трек 6
TTITLE6=Трек 7
TTITLE7=Трек 8
TTITLE8=Трек 9
TTITLE9=Трек 10
TTITLE10=Трек 11
TTITLE11=Трек 12
TTITLE12=Трек 13
TTITLE13=Трек 14
TTITLE14=Трек 15
TTITLE15=Трек 16
EXTD=
EXTT0=
EXTT1=
EXTT2=
EXTT3=
EXTT4=
EXTT5=
EXTT6=
EXTT7=
EXTT8=
EXTT9=
EXTT10=
EXTT11=
EXTT12=
EXTT13=
EXTT14=
EXTT15=
PLAYORDER=
